<?xml version="1.0" encoding="UTF-8"?>
<svg id="Layer_1" data-name="Layer 1" xmlns="http://www.w3.org/2000/svg" viewBox="0 0 500 500">
  <defs>
    <style>
      .cls-1 { fill: #29B6F6; fill-rule: evenodd; }
    </style>
  </defs>
  <circle cx="250" cy="191.83" r="138.17" fill="white"/>
  <path class="cls-1" d="M396.29,99.95c-7.95-13.04-17.66-25.08-29.2-35.57-32.87-30.02-70.92-44.38-109.45-44.68-40.03-.3-80.18,14.51-115.34,42.51-15.29,12.18-27.85,26.28-37.67,41.76-24.93,39.17-32.5,87.38-24.4,137.45,7.95,49.4,31.15,100.68,68.03,146.94,26.73,33.62,60.72,64.55,101.21,90.3,3.75,2.4,8.32,2.1,11.7-.37,27.4-16.64,51.8-37.22,72.76-60.2v-.11c42.69-46.86,71.56-104.13,83.18-160.51,11.77-57.05,6-113.35-20.8-157.51ZM250,330c-76.31,0-138.17-61.86-138.17-138.17S173.69,53.65,250,53.65s138.17,61.86,138.17,138.17-61.86,138.17-138.17,138.17Z"/>
  <!-- Blue parking sign box -->
  <rect x="152" y="108" width="196" height="162" rx="16" fill="#29B6F6"/>
  <!-- White P -->
  <text x="176" y="220" font-family="Arial, sans-serif" font-weight="900" font-size="114" fill="white">P</text>
  <!-- Car body -->
  <path fill="white" d="M183,252 Q183,238 193,234 L210,222 Q218,214 250,214 Q282,214 290,222 L307,234 Q317,238 317,252 L317,266 Q317,272 311,272 L306,272 Q304,280 294,280 Q284,280 282,272 L218,272 Q216,280 206,280 Q196,280 194,272 L189,272 Q183,272 183,266 Z"/>
  <!-- Windscreen cutout -->
  <path fill="#29B6F6" d="M218,224 Q224,214 250,214 Q276,214 282,224 Q270,232 250,232 Q230,232 218,224 Z"/>
  <!-- Left wheel -->
  <circle cx="206" cy="274" r="10" fill="#29B6F6"/>
  <!-- Right wheel -->
  <circle cx="294" cy="274" r="10" fill="#29B6F6"/>
</svg>